<svg xmlns="http://www.w3.org/2000/svg" viewBox="0 0 369.37 318.71">
    <g id="Layer_2" data-name="Layer 2">
        <g id="Layer_1-2" data-name="Layer 1">
            <g opacity="0.8">
                <polygon points="3.5 6.82 185.42 97.77 113.5 247.83 3.5 6.82" fill="#fff" />
            </g>
            <path
                d="M360,18.42l9.37-11.6-184,90.95,13.66,29.63,9-23.82a3,3,0,0,1,3.87-1.74l4.8,1.83a3,3,0,0,1,1.74,3.87l-12.93,34,7.08,15.34,4.61-12.14a3,3,0,0,1,3.87-1.74l4.8,1.82a3,3,0,0,1,1.74,3.87l-8.49,22.36,31.19,67.66,4.2,9.1L266,234.42l1-19,15-7-1-15,12-6-2-14,12-6-1-14,10-5v-15l9-6-1-14,10-7-2-13,10-4-3-12,10-7-3-13,11-6-2-14,10-7ZM244.8,103.73l-10.07,26.52a3,3,0,0,1-3.87,1.74l-4.81-1.82a3,3,0,0,1-1.73-3.87l10.07-26.53A3,3,0,0,1,238.26,98l4.8,1.83A3,3,0,0,1,244.8,103.73Zm69.91-34-22.28,58.66a3,3,0,0,1-3.87,1.74l-4.81-1.83a3,3,0,0,1-1.73-3.87L304.3,65.76A3,3,0,0,1,308.17,64l4.8,1.82A3,3,0,0,1,314.71,69.71Z"
                fill="#fff" />
            <polygon points="185.42 0 185.42 97.77 138.86 74.49 185.42 0" fill="#fff" />
            <g opacity="0.8">
                <polygon points="185 0 185 97.77 231.56 74.49 185 0" fill="#fff" />
            </g>
            <g opacity="0.3">
                <polygon points="220.75 57.2 185 76.01 185 97.77 231.56 74.49 220.75 57.2"
                    fill="#3157bb" />
            </g>
            <g opacity="0.5">
                <polygon points="14 30.42 0 39.42 100 269.42 109.55 239.19 14 30.42" fill="#00184f" />
            </g>
            <g opacity="0.5">
                <polygon
                    points="198.93 127.79 189.49 152.64 175.22 119.06 175.31 118.87 185 97.77 185.21 98.22 198.93 127.79"
                    fill="#00184f" />
            </g>
            <g opacity="0.5">
                <path
                    d="M212.58,157.2l-10,26.28-6.94-16.33a2.79,2.79,0,0,0,.6-1l9.23-24.29,7.1,15.29Z"
                    fill="#00184f" />
            </g>
            <g opacity="0.5">
                <polygon
                    points="250.41 238.73 235.5 260.92 208.88 198.28 219.13 171.31 250.41 238.73"
                    fill="#00184f" />
            </g>
            
        </g>
    </g>
</svg>