<?xml version="1.0" standalone="no"?>
<svg xmlns:xlink="http://www.w3.org/1999/xlink" id="wave" style="transform:rotate(0deg); transition: 0.3s" viewBox="0 0 1440 190" version="1.1" xmlns="http://www.w3.org/2000/svg"><defs><linearGradient id="sw-gradient-0" x1="0" x2="0" y1="1" y2="0"><stop stop-color="rgba(255, 255, 255, 1)" offset="0%"/><stop stop-color="rgba(255, 255, 255, 1)" offset="100%"/></linearGradient></defs><path style="transform:translate(0, 0px); opacity:1" fill="url(#sw-gradient-0)" d="M0,0L80,22.2C160,44,320,89,480,114C640,139,800,146,960,123.5C1120,101,1280,51,1440,38C1600,25,1760,51,1920,53.8C2080,57,2240,38,2400,34.8C2560,32,2720,44,2880,57C3040,70,3200,82,3360,91.8C3520,101,3680,108,3840,107.7C4000,108,4160,101,4320,85.5C4480,70,4640,44,4800,34.8C4960,25,5120,32,5280,44.3C5440,57,5600,76,5760,88.7C5920,101,6080,108,6240,98.2C6400,89,6560,63,6720,57C6880,51,7040,63,7200,79.2C7360,95,7520,114,7680,123.5C7840,133,8000,133,8160,117.2C8320,101,8480,70,8640,66.5C8800,63,8960,89,9120,104.5C9280,120,9440,127,9600,120.3C9760,114,9920,95,10080,72.8C10240,51,10400,25,10560,19C10720,13,10880,25,11040,28.5C11200,32,11360,25,11440,22.2L11520,19L11520,190L11440,190C11360,190,11200,190,11040,190C10880,190,10720,190,10560,190C10400,190,10240,190,10080,190C9920,190,9760,190,9600,190C9440,190,9280,190,9120,190C8960,190,8800,190,8640,190C8480,190,8320,190,8160,190C8000,190,7840,190,7680,190C7520,190,7360,190,7200,190C7040,190,6880,190,6720,190C6560,190,6400,190,6240,190C6080,190,5920,190,5760,190C5600,190,5440,190,5280,190C5120,190,4960,190,4800,190C4640,190,4480,190,4320,190C4160,190,4000,190,3840,190C3680,190,3520,190,3360,190C3200,190,3040,190,2880,190C2720,190,2560,190,2400,190C2240,190,2080,190,1920,190C1760,190,1600,190,1440,190C1280,190,1120,190,960,190C800,190,640,190,480,190C320,190,160,190,80,190L0,190Z"/></svg>