<svg id="wave" style="transform:rotate(0deg); transition: 0.3s" viewBox="0 0 1440 130" version="1.1" xmlns="http://www.w3.org/2000/svg"><defs><linearGradient id="sw-gradient-0" x1="0" x2="0" y1="1" y2="0"><stop stop-color="rgba(228, 247, 255, 1)" offset="0%"></stop><stop stop-color="rgba(228, 247, 255, 1)" offset="100%"></stop></linearGradient></defs><path style="transform:translate(0, 0px); opacity:1" fill="url(#sw-gradient-0)" d="M0,26L60,36.8C120,48,240,69,360,80.2C480,91,600,91,720,80.2C840,69,960,48,1080,39C1200,30,1320,35,1440,39C1560,43,1680,48,1800,41.2C1920,35,2040,17,2160,23.8C2280,30,2400,61,2520,67.2C2640,74,2760,56,2880,47.7C3000,39,3120,39,3240,41.2C3360,43,3480,48,3600,49.8C3720,52,3840,52,3960,45.5C4080,39,4200,26,4320,32.5C4440,39,4560,65,4680,65C4800,65,4920,39,5040,30.3C5160,22,5280,30,5400,36.8C5520,43,5640,48,5760,47.7C5880,48,6000,43,6120,47.7C6240,52,6360,65,6480,69.3C6600,74,6720,69,6840,56.3C6960,43,7080,22,7200,28.2C7320,35,7440,69,7560,69.3C7680,69,7800,35,7920,30.3C8040,26,8160,52,8280,67.2C8400,82,8520,87,8580,88.8L8640,91L8640,130L8580,130C8520,130,8400,130,8280,130C8160,130,8040,130,7920,130C7800,130,7680,130,7560,130C7440,130,7320,130,7200,130C7080,130,6960,130,6840,130C6720,130,6600,130,6480,130C6360,130,6240,130,6120,130C6000,130,5880,130,5760,130C5640,130,5520,130,5400,130C5280,130,5160,130,5040,130C4920,130,4800,130,4680,130C4560,130,4440,130,4320,130C4200,130,4080,130,3960,130C3840,130,3720,130,3600,130C3480,130,3360,130,3240,130C3120,130,3000,130,2880,130C2760,130,2640,130,2520,130C2400,130,2280,130,2160,130C2040,130,1920,130,1800,130C1680,130,1560,130,1440,130C1320,130,1200,130,1080,130C960,130,840,130,720,130C600,130,480,130,360,130C240,130,120,130,60,130L0,130Z"></path></svg>