<?xml version="1.0" standalone="no"?>
<svg xmlns:xlink="http://www.w3.org/1999/xlink" id="wave" style="transform:rotate(0deg); transition: 0.3s" viewBox="0 0 1440 190" version="1.1" xmlns="http://www.w3.org/2000/svg"><defs><linearGradient id="sw-gradient-0" x1="0" x2="0" y1="1" y2="0"><stop stop-color="rgba(55, 43, 122, 1)" offset="0%"/><stop stop-color="rgba(55, 43, 122, 1)" offset="100%"/></linearGradient></defs><path style="transform:translate(0, 0px); opacity:1" fill="url(#sw-gradient-0)" d="M0,38L80,53.8C160,70,320,101,480,120.3C640,139,800,146,960,123.5C1120,101,1280,51,1440,31.7C1600,13,1760,25,1920,47.5C2080,70,2240,101,2400,98.2C2560,95,2720,57,2880,41.2C3040,25,3200,32,3360,57C3520,82,3680,127,3840,136.2C4000,146,4160,120,4320,104.5C4480,89,4640,82,4800,72.8C4960,63,5120,51,5280,57C5440,63,5600,89,5760,98.2C5920,108,6080,101,6240,107.7C6400,114,6560,133,6720,117.2C6880,101,7040,51,7200,34.8C7360,19,7520,38,7680,47.5C7840,57,8000,57,8160,53.8C8320,51,8480,44,8640,60.2C8800,76,8960,114,9120,120.3C9280,127,9440,101,9600,95C9760,89,9920,101,10080,107.7C10240,114,10400,114,10560,110.8C10720,108,10880,101,11040,91.8C11200,82,11360,70,11440,63.3L11520,57L11520,190L11440,190C11360,190,11200,190,11040,190C10880,190,10720,190,10560,190C10400,190,10240,190,10080,190C9920,190,9760,190,9600,190C9440,190,9280,190,9120,190C8960,190,8800,190,8640,190C8480,190,8320,190,8160,190C8000,190,7840,190,7680,190C7520,190,7360,190,7200,190C7040,190,6880,190,6720,190C6560,190,6400,190,6240,190C6080,190,5920,190,5760,190C5600,190,5440,190,5280,190C5120,190,4960,190,4800,190C4640,190,4480,190,4320,190C4160,190,4000,190,3840,190C3680,190,3520,190,3360,190C3200,190,3040,190,2880,190C2720,190,2560,190,2400,190C2240,190,2080,190,1920,190C1760,190,1600,190,1440,190C1280,190,1120,190,960,190C800,190,640,190,480,190C320,190,160,190,80,190L0,190Z"/></svg>