<?xml version="1.0" encoding="UTF-8" standalone="no"?>
<!DOCTYPE svg PUBLIC "-//W3C//DTD SVG 1.1//EN" "http://www.w3.org/Graphics/SVG/1.1/DTD/svg11.dtd">
<svg width="100%" height="100%" viewBox="0 0 239 53" version="1.1" xmlns="http://www.w3.org/2000/svg" xmlns:xlink="http://www.w3.org/1999/xlink" xml:space="preserve" xmlns:serif="http://www.serif.com/" style="fill-rule:evenodd;clip-rule:evenodd;stroke-linejoin:round;stroke-miterlimit:2;">
    <g transform="matrix(1,0,0,1,-11.4791,-10.2253)">
        <g>
            <g transform="matrix(1,0,0,1,-94.969,10.2253)">
                <g transform="matrix(1,0,0,1,-130.638,-414.386)">
                    <path d="M287.625,460.858L286.035,466.577L263.566,466.577L254.719,457.851L237.086,457.851L237.086,420.104L238.68,414.386L287.625,414.386L287.625,460.858ZM285.09,458.323L285.09,416.921L273.355,416.921L273.355,448.237L268.992,448.237L268.992,416.921L257.312,416.921L257.312,439.507L252.949,439.507L252.949,416.921L241.215,416.921L241.215,449.593L257.312,449.593L266.16,458.323L285.09,458.323Z" style="fill:rgb(85,85,85);fill-rule:nonzero;"/>
                </g>
                <g transform="matrix(1,0,0,1,-130.638,-387.905)">
                    <path d="M237.086,431.37L254.719,431.37L257.312,423.112L241.215,423.112L237.086,431.37Z" style="fill:rgb(234,94,140);fill-rule:nonzero;"/>
                </g>
                <g transform="matrix(0.711838,0.702344,0.702344,-0.711838,-352.595,161.801)">
                    <path d="M252.249,426.726L264.679,426.726L268.629,419.029L256.203,419.027L252.249,426.726Z" style="fill:rgb(37,197,203);fill-rule:nonzero;"/>
                </g>
                <g transform="matrix(1,0,0,1,-130.638,-370.449)">
                    <path d="M266.16,414.386L285.09,414.386L286.035,422.64L263.566,422.64L266.16,414.386Z" style="fill:rgb(234,139,63);fill-rule:nonzero;"/>
                </g>
            </g>
            <g transform="matrix(0.670013,0,0,0.670013,35.2349,18.4564)">
                <g transform="matrix(1,0,0,1,-73.5161,-367.596)">
                    <path d="M147.539,390.71L143.41,399.906L143.102,399.906L140.32,393.109L137.457,399.945L137.133,399.945L133.234,390.71L135.02,390.71L137.324,397.238L140.242,390.48L140.512,390.48L143.258,397.277L145.734,390.71L147.539,390.71ZM163.34,399.636L161.746,399.636L161.746,394.05C161.668,393.46 161.465,392.952 161.133,392.523C160.801,392.093 160.371,391.878 159.844,391.878C159.758,391.878 159.508,391.917 159.105,391.995C158.703,392.074 158.332,392.312 157.992,392.714C157.652,393.117 157.453,393.613 157.387,394.202L157.387,399.636L155.793,399.636L155.793,384.64L157.348,384.64L157.348,392.089C157.684,391.605 158.094,391.23 158.59,390.968C159.082,390.706 159.598,390.574 160.133,390.574C161.082,390.574 161.918,390.921 162.648,391.613C163.109,392.249 163.34,392.999 163.34,393.859L163.34,399.636ZM178.836,387.558C178.707,387.585 178.609,387.597 178.547,387.597C178.238,387.597 177.988,387.488 177.789,387.261C177.59,387.038 177.492,386.773 177.492,386.464C177.492,386.273 177.531,386.105 177.613,385.956C177.699,385.808 177.844,385.683 178.047,385.581C178.137,385.558 178.242,385.523 178.363,385.488C178.484,385.449 178.598,385.441 178.699,385.468C178.996,385.507 179.227,385.628 179.391,385.831C179.559,386.034 179.641,386.265 179.641,386.523C179.641,387.062 179.371,387.406 178.836,387.558ZM179.352,399.636L177.758,399.636L177.758,390.745L179.352,390.745L179.352,399.636ZM200.34,392.054L198.746,392.054L198.746,399.636L197.191,399.636L197.191,392.054L195.789,392.054L195.789,390.824L197.191,390.824L197.191,387.234L198.746,387.234L198.746,390.824L200.34,390.824L200.34,392.054ZM221.344,397.542C220.805,398.261 220.152,398.824 219.387,399.234C218.617,399.644 217.805,399.847 216.945,399.847C216.129,399.847 215.348,399.648 214.605,399.253C213.914,398.804 213.387,398.222 213.031,397.507C212.672,396.788 212.492,396.007 212.492,395.163C212.492,394.023 212.82,393.003 213.48,392.101C214.141,391.199 214.82,390.691 215.516,390.585C216.215,390.476 216.691,390.421 216.945,390.421C217.766,390.421 218.531,390.605 219.242,390.976C219.953,391.347 220.473,391.913 220.805,392.675C221.137,393.437 221.305,394.331 221.305,395.355L214.066,395.355C214.066,396.226 214.34,396.976 214.891,397.601C215.441,398.23 216.133,398.542 216.965,398.542C217.223,398.542 217.453,398.515 217.656,398.464C218.168,398.39 218.609,398.206 218.98,397.917C219.352,397.628 219.719,397.242 220.074,396.757L221.344,397.542ZM219.75,394.202C219.609,393.488 219.27,392.902 218.73,392.445C218.195,391.992 217.562,391.765 216.832,391.765C216.18,391.765 215.605,392.003 215.113,392.484C214.621,392.964 214.297,393.538 214.145,394.202L219.75,394.202ZM239.773,399.081C239.559,399.363 239.227,399.55 238.785,399.648C238.344,399.742 237.867,399.788 237.355,399.788C237.254,399.804 237.145,399.808 237.031,399.808L236.762,399.808C235.812,399.808 234.965,399.593 234.219,399.156C233.469,398.722 232.902,398.081 232.52,397.238C232.223,396.507 232.074,395.784 232.074,395.066C232.074,394.39 232.207,393.749 232.469,393.148C232.73,392.546 233.113,392.023 233.613,391.581C234.109,391.14 234.668,390.835 235.281,390.671C235.898,390.503 236.562,390.421 237.277,390.421C238.109,390.421 238.891,390.62 239.621,391.015L239.621,392.55C239.508,392.577 239.266,392.492 238.902,392.292C238.535,392.093 238.258,391.972 238.066,391.929C237.875,391.882 237.566,391.859 237.145,391.859C236.672,391.859 236.223,391.933 235.801,392.081C235.379,392.23 235.008,392.46 234.688,392.781C234.047,393.523 233.727,394.32 233.727,395.163C233.727,395.827 233.934,396.468 234.34,397.081C234.445,397.21 234.562,397.339 234.695,397.468C234.832,397.593 234.988,397.73 235.168,397.87C235.758,398.23 236.395,398.409 237.086,398.409C237.562,398.409 238.035,398.32 238.508,398.14C238.801,397.909 239.117,397.699 239.449,397.507C239.602,397.452 239.711,397.441 239.773,397.468L239.773,399.081ZM255.633,387.558C255.508,387.585 255.41,387.597 255.348,387.597C255.039,387.597 254.785,387.488 254.59,387.261C254.391,387.038 254.289,386.773 254.289,386.464C254.289,386.273 254.332,386.105 254.414,385.956C254.5,385.808 254.641,385.683 254.848,385.581C254.938,385.558 255.043,385.523 255.164,385.488C255.285,385.449 255.398,385.441 255.5,385.468C255.793,385.507 256.023,385.628 256.191,385.831C256.359,386.034 256.441,386.265 256.441,386.523C256.441,387.062 256.172,387.406 255.633,387.558ZM256.152,399.636L254.559,399.636L254.559,390.745L256.152,390.745L256.152,399.636ZM277.137,392.054L275.543,392.054L275.543,399.636L273.988,399.636L273.988,392.054L272.59,392.054L272.59,390.824L273.988,390.824L273.988,387.234L275.543,387.234L275.543,390.824L277.137,390.824L277.137,392.054ZM298.164,390.71L292.25,403.917L290.5,403.917L293.113,398.253L289.293,390.71L291.211,390.71L293.898,396.929L296.414,390.71L298.164,390.71ZM335.773,399.081C335.559,399.363 335.227,399.55 334.785,399.648C334.344,399.742 333.867,399.788 333.355,399.788C333.254,399.804 333.145,399.808 333.031,399.808L332.762,399.808C331.812,399.808 330.965,399.593 330.219,399.156C329.469,398.722 328.902,398.081 328.52,397.238C328.223,396.507 328.074,395.784 328.074,395.066C328.074,394.39 328.207,393.749 328.469,393.148C328.73,392.546 329.113,392.023 329.613,391.581C330.109,391.14 330.668,390.835 331.281,390.671C331.898,390.503 332.562,390.421 333.277,390.421C334.109,390.421 334.891,390.62 335.621,391.015L335.621,392.55C335.508,392.577 335.266,392.492 334.902,392.292C334.535,392.093 334.258,391.972 334.066,391.929C333.875,391.882 333.566,391.859 333.145,391.859C332.672,391.859 332.223,391.933 331.801,392.081C331.379,392.23 331.008,392.46 330.688,392.781C330.047,393.523 329.727,394.32 329.727,395.163C329.727,395.827 329.934,396.468 330.34,397.081C330.445,397.21 330.562,397.339 330.695,397.468C330.832,397.593 330.988,397.73 331.168,397.87C331.758,398.23 332.395,398.409 333.086,398.409C333.562,398.409 334.035,398.32 334.508,398.14C334.801,397.909 335.117,397.699 335.449,397.507C335.602,397.452 335.711,397.441 335.773,397.468L335.773,399.081ZM356.051,395.242C356.051,396.531 355.578,397.636 354.641,398.55C353.699,399.468 352.57,399.925 351.25,399.925C349.918,399.925 348.781,399.468 347.844,398.55C346.902,397.636 346.43,396.527 346.43,395.222C346.43,393.902 346.891,392.773 347.805,391.831C348.719,390.89 349.836,390.421 351.156,390.421C352.5,390.421 353.652,390.886 354.609,391.824C355.57,392.757 356.051,393.894 356.051,395.242ZM354.609,395.242C354.609,394.304 354.293,393.507 353.66,392.851C353.027,392.191 352.254,391.859 351.348,391.859C350.41,391.859 349.613,392.179 348.957,392.812C348.297,393.445 347.969,394.214 347.969,395.124C347.969,396.034 348.289,396.82 348.926,397.488C349.566,398.152 350.34,398.484 351.25,398.484C352.16,398.484 352.945,398.171 353.613,397.542C354.277,396.917 354.609,396.148 354.609,395.242ZM374.309,399.636L372.832,399.636L372.832,397.87C372.512,398.511 372.051,398.999 371.449,399.339C370.848,399.679 370.199,399.847 369.508,399.847C368.961,399.847 368.422,399.745 367.898,399.542C367.371,399.335 366.898,399.027 366.477,398.609C366.055,398.195 365.738,397.699 365.527,397.132C365.312,396.562 365.207,395.956 365.207,395.316C365.207,394.32 365.453,393.37 365.938,392.476C366.309,391.847 366.828,391.355 367.492,390.995C368.16,390.636 368.855,390.46 369.586,390.46C370.34,390.46 371.031,390.656 371.66,391.054C371.852,391.195 372.039,391.355 372.219,391.534C372.395,391.714 372.602,391.937 372.832,392.206L372.832,384.601L374.309,384.601L374.309,399.636ZM372.102,397.581C372.613,396.902 372.871,396.105 372.871,395.183C372.871,394.402 372.66,393.706 372.246,393.097C371.828,392.492 371.227,392.109 370.43,391.956C370.199,391.929 370.027,391.917 369.914,391.917C369.156,391.917 368.496,392.163 367.926,392.656C367.355,393.152 367.043,393.624 366.984,394.077C366.926,394.531 366.895,394.812 366.891,394.913C366.883,395.015 366.879,395.105 366.879,395.183C366.879,396.089 367.121,396.878 367.598,397.542C368.078,398.21 368.762,398.542 369.645,398.542C370.156,398.542 370.609,398.468 371.008,398.32C371.402,398.175 371.77,397.929 372.102,397.581ZM394.145,397.542C393.605,398.261 392.953,398.824 392.184,399.234C391.418,399.644 390.605,399.847 389.746,399.847C388.926,399.847 388.145,399.648 387.402,399.253C386.711,398.804 386.188,398.222 385.828,397.507C385.473,396.788 385.293,396.007 385.293,395.163C385.293,394.023 385.621,393.003 386.281,392.101C386.941,391.199 387.617,390.691 388.316,390.585C389.012,390.476 389.492,390.421 389.746,390.421C390.566,390.421 391.332,390.605 392.039,390.976C392.75,391.347 393.273,391.913 393.605,392.675C393.938,393.437 394.105,394.331 394.105,395.355L386.867,395.355C386.867,396.226 387.141,396.976 387.691,397.601C388.242,398.23 388.934,398.542 389.766,398.542C390.023,398.542 390.254,398.515 390.457,398.464C390.969,398.39 391.41,398.206 391.781,397.917C392.152,397.628 392.52,397.242 392.875,396.757L394.145,397.542ZM392.551,394.202C392.41,393.488 392.07,392.902 391.531,392.445C390.996,391.992 390.359,391.765 389.633,391.765C388.977,391.765 388.406,392.003 387.914,392.484C387.422,392.964 387.098,393.538 386.941,394.202L392.551,394.202Z" style="fill:rgb(85,85,85);fill-rule:nonzero;"/>
                </g>
                <g transform="matrix(1,0,0,1,57.8879,-46.6317)">
                    <g transform="matrix(1,0,0,1,-130.638,-327.988)">
                        <rect x="311.125" y="395.683" width="3.199" height="3.199" style="fill:rgb(234,139,63);"/>
                    </g>
                    <g transform="matrix(1,0,0,1,-130.638,-311.988)">
                        <rect x="311.125" y="387.683" width="3.199" height="3.199" style="fill:rgb(234,94,140);"/>
                    </g>
                </g>
            </g>
        </g>
    </g>
</svg>
